<?xml version="1.0" standalone="no"?>
<!DOCTYPE svg PUBLIC "-//W3C//DTD SVG 20010904//EN"
 "http://www.w3.org/TR/2001/REC-SVG-20010904/DTD/svg10.dtd">
<svg version="1.0" xmlns="http://www.w3.org/2000/svg"
 width="640.000000pt" height="640.000000pt" viewBox="0 0 640.000000 640.000000"
 preserveAspectRatio="xMidYMid meet">
<metadata>
Created by potrace 1.14, written by Peter Selinger 2001-2017
</metadata>
<g transform="translate(0.000000,640.000000) scale(0.100000,-0.100000)"
fill="#000000" stroke="none">
<path d="M2979 6395 c-2 -2 -35 -6 -74 -9 -123 -10 -383 -53 -470 -78 -22 -6
-44 -12 -50 -14 -40 -8 -113 -30 -189 -55 -472 -159 -877 -406 -1225 -748
-120 -117 -171 -174 -286 -312 -159 -191 -371 -562 -465 -814 -4 -11 -12 -31
-18 -45 -20 -44 -70 -204 -97 -307 -30 -118 -28 -110 -59 -270 -3 -11 -7 -43
-11 -70 -4 -26 -8 -59 -11 -72 -26 -170 -26 -622 1 -801 2 -14 9 -61 15 -105
7 -44 14 -87 16 -95 2 -8 11 -49 19 -90 34 -159 129 -461 165 -522 5 -10 10
-22 10 -27 0 -15 100 -220 153 -316 100 -179 263 -412 385 -549 76 -85 280
-284 362 -353 104 -87 288 -219 367 -264 32 -18 60 -35 63 -39 14 -16 323
-170 371 -185 13 -4 29 -11 34 -15 16 -13 286 -106 334 -115 9 -2 16 -4 16 -5
0 -2 7 -4 115 -31 47 -11 94 -22 105 -24 90 -17 216 -37 245 -40 19 -2 67 -7
105 -11 136 -16 641 -8 697 11 7 2 33 6 58 9 25 3 59 8 75 11 111 21 197 39
240 50 171 46 210 57 243 69 20 8 75 29 122 46 99 37 142 56 270 118 107 52
283 152 288 164 2 4 8 8 13 8 14 0 276 183 299 209 3 3 34 30 70 60 72 61 268
255 344 341 251 286 483 692 605 1060 24 73 52 161 57 180 27 107 35 139 39
160 11 49 35 186 41 230 3 25 8 53 10 64 26 138 26 625 -1 791 -3 17 -7 46 -9
65 -17 129 -47 268 -93 430 -34 120 -93 287 -113 322 -5 10 -10 22 -10 27 0
15 -100 220 -153 316 -98 175 -256 401 -379 543 -80 92 -303 306 -403 388
-292 237 -626 421 -995 547 -93 32 -205 64 -247 72 -18 3 -43 9 -56 14 -13 5
-41 12 -63 15 -21 3 -50 8 -64 11 -31 7 -87 16 -120 20 -22 2 -56 7 -155 21
-38 5 -532 14 -536 9z"/>
</g>
</svg>
